<mxfile host="app.diagrams.net" modified="2024-03-03T14:56:02.471Z" agent="Mozilla/5.0 (Macintosh; Intel Mac OS X 10_15_7) AppleWebKit/537.36 (KHTML, like Gecko) Chrome/122.0.0.0 Safari/537.36" etag="q5xP9lYCeM1d31VOVvcE" version="24.0.1" type="github">
  <diagram id="prtHgNgQTEPvFCAcTncT" name="Page-1">
    <mxGraphModel dx="2233" dy="761" grid="1" gridSize="10" guides="1" tooltips="1" connect="1" arrows="1" fold="1" page="1" pageScale="1" pageWidth="827" pageHeight="1169" math="0" shadow="0">
      <root>
        <mxCell id="0" />
        <mxCell id="1" parent="0" />
        <mxCell id="dNxyNK7c78bLwvsdeMH5-19" value="Pool" style="swimlane;html=1;childLayout=stackLayout;resizeParent=1;resizeParentMax=0;horizontal=0;startSize=20;horizontalStack=0;" parent="1" vertex="1">
          <mxGeometry x="120" y="120" width="450" height="360" as="geometry" />
        </mxCell>
        <mxCell id="dNxyNK7c78bLwvsdeMH5-27" value="" style="edgeStyle=orthogonalEdgeStyle;rounded=0;orthogonalLoop=1;jettySize=auto;html=1;dashed=1;endArrow=none;endFill=0;" parent="dNxyNK7c78bLwvsdeMH5-19" source="dNxyNK7c78bLwvsdeMH5-24" target="dNxyNK7c78bLwvsdeMH5-26" edge="1">
          <mxGeometry relative="1" as="geometry" />
        </mxCell>
        <mxCell id="dNxyNK7c78bLwvsdeMH5-31" style="edgeStyle=orthogonalEdgeStyle;rounded=0;orthogonalLoop=1;jettySize=auto;html=1;endArrow=classic;endFill=1;" parent="dNxyNK7c78bLwvsdeMH5-19" source="dNxyNK7c78bLwvsdeMH5-28" target="dNxyNK7c78bLwvsdeMH5-30" edge="1">
          <mxGeometry relative="1" as="geometry" />
        </mxCell>
        <mxCell id="dNxyNK7c78bLwvsdeMH5-35" style="edgeStyle=orthogonalEdgeStyle;rounded=0;orthogonalLoop=1;jettySize=auto;html=1;endArrow=classic;endFill=1;" parent="dNxyNK7c78bLwvsdeMH5-19" source="dNxyNK7c78bLwvsdeMH5-28" target="dNxyNK7c78bLwvsdeMH5-34" edge="1">
          <mxGeometry relative="1" as="geometry" />
        </mxCell>
        <mxCell id="dNxyNK7c78bLwvsdeMH5-38" style="edgeStyle=orthogonalEdgeStyle;rounded=0;orthogonalLoop=1;jettySize=auto;html=1;endArrow=classic;endFill=1;" parent="dNxyNK7c78bLwvsdeMH5-19" source="dNxyNK7c78bLwvsdeMH5-26" target="dNxyNK7c78bLwvsdeMH5-36" edge="1">
          <mxGeometry relative="1" as="geometry">
            <Array as="points">
              <mxPoint x="180" y="340" />
              <mxPoint x="400" y="340" />
            </Array>
          </mxGeometry>
        </mxCell>
        <mxCell id="dNxyNK7c78bLwvsdeMH5-20" value="Lane 1" style="swimlane;html=1;startSize=20;horizontal=0;" parent="dNxyNK7c78bLwvsdeMH5-19" vertex="1">
          <mxGeometry x="20" width="430" height="120" as="geometry" />
        </mxCell>
        <mxCell id="dNxyNK7c78bLwvsdeMH5-25" value="" style="edgeStyle=orthogonalEdgeStyle;rounded=0;orthogonalLoop=1;jettySize=auto;html=1;" parent="dNxyNK7c78bLwvsdeMH5-20" source="dNxyNK7c78bLwvsdeMH5-23" target="dNxyNK7c78bLwvsdeMH5-24" edge="1">
          <mxGeometry relative="1" as="geometry" />
        </mxCell>
        <mxCell id="dNxyNK7c78bLwvsdeMH5-23" value="" style="ellipse;whiteSpace=wrap;html=1;" parent="dNxyNK7c78bLwvsdeMH5-20" vertex="1">
          <mxGeometry x="40" y="40" width="40" height="40" as="geometry" />
        </mxCell>
        <mxCell id="dNxyNK7c78bLwvsdeMH5-24" value="" style="rounded=0;whiteSpace=wrap;html=1;fontFamily=Helvetica;fontSize=12;fontColor=#000000;align=center;" parent="dNxyNK7c78bLwvsdeMH5-20" vertex="1">
          <mxGeometry x="120" y="30" width="80" height="60" as="geometry" />
        </mxCell>
        <mxCell id="dNxyNK7c78bLwvsdeMH5-33" value="" style="edgeStyle=orthogonalEdgeStyle;rounded=0;orthogonalLoop=1;jettySize=auto;html=1;endArrow=classic;endFill=1;" parent="dNxyNK7c78bLwvsdeMH5-20" source="dNxyNK7c78bLwvsdeMH5-30" target="dNxyNK7c78bLwvsdeMH5-32" edge="1">
          <mxGeometry relative="1" as="geometry" />
        </mxCell>
        <mxCell id="dNxyNK7c78bLwvsdeMH5-30" value="" style="rounded=0;whiteSpace=wrap;html=1;fontFamily=Helvetica;fontSize=12;fontColor=#000000;align=center;" parent="dNxyNK7c78bLwvsdeMH5-20" vertex="1">
          <mxGeometry x="240" y="30" width="80" height="60" as="geometry" />
        </mxCell>
        <mxCell id="dNxyNK7c78bLwvsdeMH5-32" value="" style="ellipse;whiteSpace=wrap;html=1;" parent="dNxyNK7c78bLwvsdeMH5-20" vertex="1">
          <mxGeometry x="360" y="40" width="40" height="40" as="geometry" />
        </mxCell>
        <mxCell id="dNxyNK7c78bLwvsdeMH5-21" value="Lane 2" style="swimlane;html=1;startSize=20;horizontal=0;" parent="dNxyNK7c78bLwvsdeMH5-19" vertex="1">
          <mxGeometry x="20" y="120" width="430" height="120" as="geometry" />
        </mxCell>
        <mxCell id="dNxyNK7c78bLwvsdeMH5-29" value="" style="edgeStyle=orthogonalEdgeStyle;rounded=0;orthogonalLoop=1;jettySize=auto;html=1;endArrow=classic;endFill=1;" parent="dNxyNK7c78bLwvsdeMH5-21" source="dNxyNK7c78bLwvsdeMH5-26" target="dNxyNK7c78bLwvsdeMH5-28" edge="1">
          <mxGeometry relative="1" as="geometry" />
        </mxCell>
        <mxCell id="dNxyNK7c78bLwvsdeMH5-26" value="" style="rounded=0;whiteSpace=wrap;html=1;fontFamily=Helvetica;fontSize=12;fontColor=#000000;align=center;" parent="dNxyNK7c78bLwvsdeMH5-21" vertex="1">
          <mxGeometry x="120" y="30" width="80" height="60" as="geometry" />
        </mxCell>
        <mxCell id="dNxyNK7c78bLwvsdeMH5-28" value="" style="rhombus;whiteSpace=wrap;html=1;fontFamily=Helvetica;fontSize=12;fontColor=#000000;align=center;" parent="dNxyNK7c78bLwvsdeMH5-21" vertex="1">
          <mxGeometry x="260" y="40" width="40" height="40" as="geometry" />
        </mxCell>
        <mxCell id="dNxyNK7c78bLwvsdeMH5-22" value="Lane 3" style="swimlane;html=1;startSize=20;horizontal=0;" parent="dNxyNK7c78bLwvsdeMH5-19" vertex="1">
          <mxGeometry x="20" y="240" width="430" height="120" as="geometry" />
        </mxCell>
        <mxCell id="dNxyNK7c78bLwvsdeMH5-37" value="" style="edgeStyle=orthogonalEdgeStyle;rounded=0;orthogonalLoop=1;jettySize=auto;html=1;endArrow=classic;endFill=1;" parent="dNxyNK7c78bLwvsdeMH5-22" source="dNxyNK7c78bLwvsdeMH5-34" target="dNxyNK7c78bLwvsdeMH5-36" edge="1">
          <mxGeometry relative="1" as="geometry" />
        </mxCell>
        <mxCell id="dNxyNK7c78bLwvsdeMH5-34" value="" style="rounded=0;whiteSpace=wrap;html=1;fontFamily=Helvetica;fontSize=12;fontColor=#000000;align=center;" parent="dNxyNK7c78bLwvsdeMH5-22" vertex="1">
          <mxGeometry x="240" y="20" width="80" height="60" as="geometry" />
        </mxCell>
        <mxCell id="dNxyNK7c78bLwvsdeMH5-36" value="" style="rhombus;whiteSpace=wrap;html=1;fontFamily=Helvetica;fontSize=12;fontColor=#000000;align=center;" parent="dNxyNK7c78bLwvsdeMH5-22" vertex="1">
          <mxGeometry x="360" y="30" width="40" height="40" as="geometry" />
        </mxCell>
        <mxCell id="tjXnVJBQ9HKJjdVD9FGJ-1" value="初始化" style="swimlane;whiteSpace=wrap;html=1;" parent="1" vertex="1">
          <mxGeometry x="120" y="550" width="630" height="410" as="geometry" />
        </mxCell>
        <mxCell id="tjXnVJBQ9HKJjdVD9FGJ-2" value="ToC 分播" style="swimlane;whiteSpace=wrap;html=1;" parent="1" vertex="1">
          <mxGeometry x="-357" y="1420" width="1640" height="4000" as="geometry" />
        </mxCell>
        <mxCell id="FaZC592zvoWZjne6oMdN-1" value="lesoon-sce-wms-e-web" style="swimlane;whiteSpace=wrap;html=1;" parent="tjXnVJBQ9HKJjdVD9FGJ-2" vertex="1">
          <mxGeometry y="20" width="230" height="2000" as="geometry" />
        </mxCell>
        <mxCell id="FaZC592zvoWZjne6oMdN-2" value="扫描拣货单号" style="rounded=0;whiteSpace=wrap;html=1;" parent="FaZC592zvoWZjne6oMdN-1" vertex="1">
          <mxGeometry x="55" y="40" width="120" height="40" as="geometry" />
        </mxCell>
        <mxCell id="Yv0LOf2NeITes6On473w-61" value="" style="edgeStyle=orthogonalEdgeStyle;rounded=0;orthogonalLoop=1;jettySize=auto;html=1;" edge="1" parent="FaZC592zvoWZjne6oMdN-1" source="Yv0LOf2NeITes6On473w-58" target="Yv0LOf2NeITes6On473w-60">
          <mxGeometry relative="1" as="geometry" />
        </mxCell>
        <mxCell id="Yv0LOf2NeITes6On473w-58" value="展示统计数量" style="whiteSpace=wrap;html=1;" vertex="1" parent="FaZC592zvoWZjne6oMdN-1">
          <mxGeometry x="40" y="1460" width="129" height="60" as="geometry" />
        </mxCell>
        <mxCell id="Yv0LOf2NeITes6On473w-60" value="扫描商品条码" style="whiteSpace=wrap;html=1;" vertex="1" parent="FaZC592zvoWZjne6oMdN-1">
          <mxGeometry x="40" y="1600" width="129" height="60" as="geometry" />
        </mxCell>
        <mxCell id="FaZC592zvoWZjne6oMdN-4" value="lesoon-sce-wms-e-api" style="swimlane;whiteSpace=wrap;html=1;" parent="tjXnVJBQ9HKJjdVD9FGJ-2" vertex="1">
          <mxGeometry x="230" y="20" width="1010" height="3980" as="geometry" />
        </mxCell>
        <mxCell id="FaZC592zvoWZjne6oMdN-27" value="" style="edgeStyle=orthogonalEdgeStyle;rounded=0;orthogonalLoop=1;jettySize=auto;html=1;" parent="FaZC592zvoWZjne6oMdN-4" source="FaZC592zvoWZjne6oMdN-3" target="FaZC592zvoWZjne6oMdN-26" edge="1">
          <mxGeometry relative="1" as="geometry" />
        </mxCell>
        <mxCell id="FaZC592zvoWZjne6oMdN-29" value="" style="edgeStyle=orthogonalEdgeStyle;rounded=0;orthogonalLoop=1;jettySize=auto;html=1;" parent="FaZC592zvoWZjne6oMdN-4" source="FaZC592zvoWZjne6oMdN-3" target="FaZC592zvoWZjne6oMdN-28" edge="1">
          <mxGeometry relative="1" as="geometry" />
        </mxCell>
        <mxCell id="FaZC592zvoWZjne6oMdN-3" value="拣货单是否存在" style="rhombus;whiteSpace=wrap;html=1;" parent="FaZC592zvoWZjne6oMdN-4" vertex="1">
          <mxGeometry x="125" y="124" width="115" height="56" as="geometry" />
        </mxCell>
        <mxCell id="FaZC592zvoWZjne6oMdN-20" style="edgeStyle=orthogonalEdgeStyle;rounded=0;orthogonalLoop=1;jettySize=auto;html=1;exitX=0.5;exitY=1;exitDx=0;exitDy=0;entryX=0.5;entryY=0;entryDx=0;entryDy=0;" parent="FaZC592zvoWZjne6oMdN-4" source="FaZC592zvoWZjne6oMdN-14" target="FaZC592zvoWZjne6oMdN-3" edge="1">
          <mxGeometry relative="1" as="geometry" />
        </mxCell>
        <mxCell id="FaZC592zvoWZjne6oMdN-14" value="&lt;div style=&quot;&quot;&gt;&lt;pre style=&quot;&quot;&gt;&lt;span style=&quot;background-color: rgb(255, 255, 255);&quot;&gt;&lt;font face=&quot;Helvetica&quot; style=&quot;font-size: 12px;&quot;&gt;/rfapi/blOmOnlineRecheck/getPickOutStockBill&lt;/font&gt;&lt;/span&gt;&lt;/pre&gt;&lt;/div&gt;" style="text;html=1;align=center;verticalAlign=middle;whiteSpace=wrap;rounded=0;strokeColor=default;" parent="FaZC592zvoWZjne6oMdN-4" vertex="1">
          <mxGeometry x="37" y="40" width="290" height="40" as="geometry" />
        </mxCell>
        <mxCell id="FaZC592zvoWZjne6oMdN-26" value="&lt;div style=&quot;&quot;&gt;&lt;pre style=&quot;font-family: 宋体, monospace; font-size: 10.5pt;&quot;&gt;&lt;span style=&quot;background-color: rgb(255, 255, 255);&quot;&gt;拣货单号不存在&lt;span style=&quot;font-family: &amp;quot;JetBrains Mono&amp;quot;, monospace;&quot;&gt;!&lt;/span&gt;&lt;/span&gt;&lt;/pre&gt;&lt;/div&gt;" style="ellipse;whiteSpace=wrap;html=1;" parent="FaZC592zvoWZjne6oMdN-4" vertex="1">
          <mxGeometry x="320" y="123" width="122.5" height="58" as="geometry" />
        </mxCell>
        <mxCell id="FaZC592zvoWZjne6oMdN-31" style="edgeStyle=orthogonalEdgeStyle;rounded=0;orthogonalLoop=1;jettySize=auto;html=1;exitX=1;exitY=0.5;exitDx=0;exitDy=0;entryX=0;entryY=0.5;entryDx=0;entryDy=0;" parent="FaZC592zvoWZjne6oMdN-4" source="FaZC592zvoWZjne6oMdN-28" target="FaZC592zvoWZjne6oMdN-30" edge="1">
          <mxGeometry relative="1" as="geometry" />
        </mxCell>
        <mxCell id="FaZC592zvoWZjne6oMdN-33" value="" style="edgeStyle=orthogonalEdgeStyle;rounded=0;orthogonalLoop=1;jettySize=auto;html=1;entryX=0.5;entryY=0;entryDx=0;entryDy=0;" parent="FaZC592zvoWZjne6oMdN-4" source="FaZC592zvoWZjne6oMdN-28" target="FaZC592zvoWZjne6oMdN-34" edge="1">
          <mxGeometry relative="1" as="geometry">
            <mxPoint x="191.30000000000018" y="384.02871794871817" as="targetPoint" />
          </mxGeometry>
        </mxCell>
        <mxCell id="FaZC592zvoWZjne6oMdN-28" value="是否是一单多货" style="rhombus;whiteSpace=wrap;html=1;" parent="FaZC592zvoWZjne6oMdN-4" vertex="1">
          <mxGeometry x="125" y="260" width="115" height="56" as="geometry" />
        </mxCell>
        <mxCell id="FaZC592zvoWZjne6oMdN-30" value="&lt;div style=&quot;&quot;&gt;&lt;pre style=&quot;&quot;&gt;&lt;font face=&quot;JetBrains Mono, monospace&quot;&gt;&lt;span style=&quot;font-size: 14px;&quot;&gt;拣货单号不是一单多货类型，无需二次理货!&lt;/span&gt;&lt;/font&gt;&lt;/pre&gt;&lt;/div&gt;" style="ellipse;whiteSpace=wrap;html=1;" parent="FaZC592zvoWZjne6oMdN-4" vertex="1">
          <mxGeometry x="320" y="259" width="280" height="58" as="geometry" />
        </mxCell>
        <mxCell id="FaZC592zvoWZjne6oMdN-36" style="edgeStyle=orthogonalEdgeStyle;rounded=0;orthogonalLoop=1;jettySize=auto;html=1;exitX=1;exitY=0.5;exitDx=0;exitDy=0;entryX=0;entryY=0.5;entryDx=0;entryDy=0;" parent="FaZC592zvoWZjne6oMdN-4" source="FaZC592zvoWZjne6oMdN-34" target="FaZC592zvoWZjne6oMdN-35" edge="1">
          <mxGeometry relative="1" as="geometry" />
        </mxCell>
        <mxCell id="FaZC592zvoWZjne6oMdN-39" style="edgeStyle=orthogonalEdgeStyle;rounded=0;orthogonalLoop=1;jettySize=auto;html=1;exitX=0.5;exitY=1;exitDx=0;exitDy=0;entryX=0.5;entryY=0;entryDx=0;entryDy=0;" parent="FaZC592zvoWZjne6oMdN-4" source="FaZC592zvoWZjne6oMdN-34" target="FaZC592zvoWZjne6oMdN-37" edge="1">
          <mxGeometry relative="1" as="geometry" />
        </mxCell>
        <mxCell id="FaZC592zvoWZjne6oMdN-34" value="状态是否小于20" style="rhombus;whiteSpace=wrap;html=1;" parent="FaZC592zvoWZjne6oMdN-4" vertex="1">
          <mxGeometry x="124.5" y="400" width="115" height="56" as="geometry" />
        </mxCell>
        <mxCell id="FaZC592zvoWZjne6oMdN-35" value="&lt;div style=&quot;&quot;&gt;&lt;pre style=&quot;&quot;&gt;&lt;font face=&quot;宋体, monospace&quot;&gt;&lt;span style=&quot;font-size: 14px;&quot;&gt;拣货单还未拣货!&lt;/span&gt;&lt;span style=&quot;font-size: 10.5pt;&quot;&gt;&lt;br&gt;&lt;/span&gt;&lt;/font&gt;&lt;/pre&gt;&lt;/div&gt;" style="ellipse;whiteSpace=wrap;html=1;" parent="FaZC592zvoWZjne6oMdN-4" vertex="1">
          <mxGeometry x="330" y="399" width="122.5" height="58" as="geometry" />
        </mxCell>
        <mxCell id="FaZC592zvoWZjne6oMdN-40" style="edgeStyle=orthogonalEdgeStyle;rounded=0;orthogonalLoop=1;jettySize=auto;html=1;exitX=1;exitY=0.5;exitDx=0;exitDy=0;entryX=0;entryY=0.5;entryDx=0;entryDy=0;" parent="FaZC592zvoWZjne6oMdN-4" source="FaZC592zvoWZjne6oMdN-37" target="FaZC592zvoWZjne6oMdN-38" edge="1">
          <mxGeometry relative="1" as="geometry" />
        </mxCell>
        <mxCell id="FaZC592zvoWZjne6oMdN-43" style="edgeStyle=orthogonalEdgeStyle;rounded=0;orthogonalLoop=1;jettySize=auto;html=1;exitX=0.5;exitY=1;exitDx=0;exitDy=0;entryX=0.5;entryY=0;entryDx=0;entryDy=0;" parent="FaZC592zvoWZjne6oMdN-4" source="FaZC592zvoWZjne6oMdN-37" target="FaZC592zvoWZjne6oMdN-41" edge="1">
          <mxGeometry relative="1" as="geometry" />
        </mxCell>
        <mxCell id="FaZC592zvoWZjne6oMdN-37" value="状态是否=100" style="rhombus;whiteSpace=wrap;html=1;" parent="FaZC592zvoWZjne6oMdN-4" vertex="1">
          <mxGeometry x="125" y="516" width="115" height="56" as="geometry" />
        </mxCell>
        <mxCell id="FaZC592zvoWZjne6oMdN-38" value="&lt;div style=&quot;&quot;&gt;&lt;pre style=&quot;&quot;&gt;&lt;font face=&quot;宋体, monospace&quot;&gt;&lt;span style=&quot;font-size: 14px;&quot;&gt;拣货单已完结!&lt;/span&gt;&lt;span style=&quot;font-size: 10.5pt;&quot;&gt;&lt;br&gt;&lt;/span&gt;&lt;/font&gt;&lt;/pre&gt;&lt;/div&gt;" style="ellipse;whiteSpace=wrap;html=1;" parent="FaZC592zvoWZjne6oMdN-4" vertex="1">
          <mxGeometry x="327" y="515" width="122.5" height="58" as="geometry" />
        </mxCell>
        <mxCell id="FaZC592zvoWZjne6oMdN-44" style="edgeStyle=orthogonalEdgeStyle;rounded=0;orthogonalLoop=1;jettySize=auto;html=1;exitX=1;exitY=0.5;exitDx=0;exitDy=0;entryX=0;entryY=0.5;entryDx=0;entryDy=0;" parent="FaZC592zvoWZjne6oMdN-4" source="FaZC592zvoWZjne6oMdN-41" target="FaZC592zvoWZjne6oMdN-42" edge="1">
          <mxGeometry relative="1" as="geometry" />
        </mxCell>
        <mxCell id="FaZC592zvoWZjne6oMdN-46" value="" style="edgeStyle=orthogonalEdgeStyle;rounded=0;orthogonalLoop=1;jettySize=auto;html=1;" parent="FaZC592zvoWZjne6oMdN-4" source="FaZC592zvoWZjne6oMdN-41" target="FaZC592zvoWZjne6oMdN-45" edge="1">
          <mxGeometry relative="1" as="geometry" />
        </mxCell>
        <mxCell id="FaZC592zvoWZjne6oMdN-41" value="代分播数量是否&amp;gt;0" style="rhombus;whiteSpace=wrap;html=1;" parent="FaZC592zvoWZjne6oMdN-4" vertex="1">
          <mxGeometry x="125" y="610" width="115" height="56" as="geometry" />
        </mxCell>
        <mxCell id="FaZC592zvoWZjne6oMdN-42" value="&lt;div style=&quot;&quot;&gt;&lt;pre style=&quot;&quot;&gt;&lt;font face=&quot;宋体, monospace&quot;&gt;&lt;span style=&quot;font-size: 14px;&quot;&gt;拣货单无待代理货数量!&lt;/span&gt;&lt;span style=&quot;font-size: 10.5pt;&quot;&gt;&lt;br&gt;&lt;/span&gt;&lt;/font&gt;&lt;/pre&gt;&lt;/div&gt;" style="ellipse;whiteSpace=wrap;html=1;" parent="FaZC592zvoWZjne6oMdN-4" vertex="1">
          <mxGeometry x="329" y="609" width="160" height="58" as="geometry" />
        </mxCell>
        <mxCell id="FaZC592zvoWZjne6oMdN-50" value="" style="edgeStyle=orthogonalEdgeStyle;rounded=0;orthogonalLoop=1;jettySize=auto;html=1;" parent="FaZC592zvoWZjne6oMdN-4" source="FaZC592zvoWZjne6oMdN-45" target="FaZC592zvoWZjne6oMdN-49" edge="1">
          <mxGeometry relative="1" as="geometry" />
        </mxCell>
        <mxCell id="FaZC592zvoWZjne6oMdN-54" value="" style="edgeStyle=orthogonalEdgeStyle;rounded=0;orthogonalLoop=1;jettySize=auto;html=1;" parent="FaZC592zvoWZjne6oMdN-4" source="FaZC592zvoWZjne6oMdN-45" target="FaZC592zvoWZjne6oMdN-53" edge="1">
          <mxGeometry relative="1" as="geometry" />
        </mxCell>
        <mxCell id="FaZC592zvoWZjne6oMdN-45" value="是否有格口预占" style="rhombus;whiteSpace=wrap;html=1;" parent="FaZC592zvoWZjne6oMdN-4" vertex="1">
          <mxGeometry x="125" y="746" width="115" height="56" as="geometry" />
        </mxCell>
        <mxCell id="FaZC592zvoWZjne6oMdN-52" style="edgeStyle=orthogonalEdgeStyle;rounded=0;orthogonalLoop=1;jettySize=auto;html=1;exitX=1;exitY=0.5;exitDx=0;exitDy=0;entryX=0;entryY=0.5;entryDx=0;entryDy=0;" parent="FaZC592zvoWZjne6oMdN-4" source="FaZC592zvoWZjne6oMdN-49" target="FaZC592zvoWZjne6oMdN-51" edge="1">
          <mxGeometry relative="1" as="geometry" />
        </mxCell>
        <mxCell id="FaZC592zvoWZjne6oMdN-49" value="预占的格口所在工作台&lt;div&gt;是否是当前工作台&lt;/div&gt;" style="rhombus;whiteSpace=wrap;html=1;" parent="FaZC592zvoWZjne6oMdN-4" vertex="1">
          <mxGeometry x="329" y="742" width="180" height="64" as="geometry" />
        </mxCell>
        <mxCell id="FaZC592zvoWZjne6oMdN-51" value="&lt;div style=&quot;&quot;&gt;&lt;pre style=&quot;&quot;&gt;&lt;font face=&quot;宋体, monospace&quot;&gt;&lt;span style=&quot;font-size: 14px;&quot;&gt;当前波次已在其他工作台&lt;br/&gt;&lt;/span&gt;&lt;span style=&quot;font-size: 10.5pt;&quot;&gt;进行分播&lt;/span&gt;&lt;/font&gt;&lt;/pre&gt;&lt;/div&gt;" style="ellipse;whiteSpace=wrap;html=1;" parent="FaZC592zvoWZjne6oMdN-4" vertex="1">
          <mxGeometry x="560" y="745" width="160" height="58" as="geometry" />
        </mxCell>
        <mxCell id="Yv0LOf2NeITes6On473w-2" value="" style="edgeStyle=orthogonalEdgeStyle;rounded=0;orthogonalLoop=1;jettySize=auto;html=1;" edge="1" parent="FaZC592zvoWZjne6oMdN-4" source="FaZC592zvoWZjne6oMdN-53" target="Yv0LOf2NeITes6On473w-1">
          <mxGeometry relative="1" as="geometry" />
        </mxCell>
        <mxCell id="FaZC592zvoWZjne6oMdN-53" value="预占格口" style="whiteSpace=wrap;html=1;" parent="FaZC592zvoWZjne6oMdN-4" vertex="1">
          <mxGeometry x="122.5" y="880" width="120" height="60" as="geometry" />
        </mxCell>
        <mxCell id="Yv0LOf2NeITes6On473w-48" style="edgeStyle=orthogonalEdgeStyle;rounded=0;orthogonalLoop=1;jettySize=auto;html=1;exitX=0.5;exitY=1;exitDx=0;exitDy=0;entryX=0.5;entryY=0;entryDx=0;entryDy=0;" edge="1" parent="FaZC592zvoWZjne6oMdN-4" source="Yv0LOf2NeITes6On473w-1" target="Yv0LOf2NeITes6On473w-3">
          <mxGeometry relative="1" as="geometry" />
        </mxCell>
        <mxCell id="Yv0LOf2NeITes6On473w-1" value="查询当前波次&lt;span style=&quot;background-color: initial;&quot;&gt;待分播数&lt;/span&gt;&lt;span style=&quot;background-color: initial;&quot;&gt;量大于 0 的流道&lt;/span&gt;" style="whiteSpace=wrap;html=1;align=left;" vertex="1" parent="FaZC592zvoWZjne6oMdN-4">
          <mxGeometry x="322.5" y="880" width="127.5" height="60" as="geometry" />
        </mxCell>
        <mxCell id="Yv0LOf2NeITes6On473w-52" value="" style="edgeStyle=orthogonalEdgeStyle;rounded=0;orthogonalLoop=1;jettySize=auto;html=1;" edge="1" parent="FaZC592zvoWZjne6oMdN-4" source="Yv0LOf2NeITes6On473w-3" target="Yv0LOf2NeITes6On473w-51">
          <mxGeometry relative="1" as="geometry" />
        </mxCell>
        <mxCell id="Yv0LOf2NeITes6On473w-3" value="查询当前工作台对应的分播墙未被占用的格口" style="whiteSpace=wrap;html=1;" vertex="1" parent="FaZC592zvoWZjne6oMdN-4">
          <mxGeometry x="322.5" y="1020" width="129" height="60" as="geometry" />
        </mxCell>
        <mxCell id="Yv0LOf2NeITes6On473w-43" value="sql" style="swimlane;whiteSpace=wrap;html=1;startSize=60;" vertex="1" collapsed="1" parent="FaZC592zvoWZjne6oMdN-4">
          <mxGeometry x="450" y="880" width="60" height="60" as="geometry">
            <mxRectangle x="450" y="880" width="359.5" height="160" as="alternateBounds" />
          </mxGeometry>
        </mxCell>
        <mxCell id="Yv0LOf2NeITes6On473w-45" value="&lt;div&gt;SELECT DISTINCT&amp;nbsp; `store_no`, `bill_no`, `serial_no`&lt;/div&gt;&lt;div&gt;FROM&lt;/div&gt;&lt;div&gt;&amp;nbsp; `bl_om_online_outstock_dtl`&lt;/div&gt;&lt;div&gt;WHERE&lt;/div&gt;&lt;div&gt;&amp;nbsp; `store_no` = &#39;Z752Y&#39;&lt;/div&gt;&lt;div&gt;&amp;nbsp; and `bill_no` = &#39;Z752YHO2403030000532&#39;&lt;/div&gt;&lt;div&gt;&amp;nbsp; and `outstock_qty` - `recheck_qty` - `diff_qty` - `sort_qty` &amp;gt; 0;&lt;/div&gt;" style="text;html=1;align=left;verticalAlign=middle;resizable=0;points=[];autosize=1;strokeColor=none;fillColor=none;" vertex="1" parent="Yv0LOf2NeITes6On473w-43">
          <mxGeometry x="14" y="40" width="350" height="110" as="geometry" />
        </mxCell>
        <mxCell id="Yv0LOf2NeITes6On473w-46" value="sql" style="swimlane;whiteSpace=wrap;html=1;startSize=60;" vertex="1" collapsed="1" parent="FaZC592zvoWZjne6oMdN-4">
          <mxGeometry x="451.5" y="1020" width="60" height="60" as="geometry">
            <mxRectangle x="451.5" y="1020" width="408.5" height="240" as="alternateBounds" />
          </mxGeometry>
        </mxCell>
        <mxCell id="Yv0LOf2NeITes6On473w-47" value="&lt;div&gt;SELECT&lt;/div&gt;&lt;div&gt;&amp;nbsp; a.`store_no`, a.`wall_no`, a.`cell_no`&lt;/div&gt;&lt;div&gt;FROM&lt;/div&gt;&lt;div&gt;&amp;nbsp; `bm_wcs_distribute_cell` a&lt;/div&gt;&lt;div&gt;&amp;nbsp; INNER JOIN `bm_wcs_distribute` b on a.`store_no` = b.`store_no`&lt;/div&gt;&lt;div&gt;&amp;nbsp; AND a.`wall_no` = b.`wall_no`&lt;/div&gt;&lt;div&gt;WHERE&lt;/div&gt;&lt;div&gt;&amp;nbsp; a.`store_no` = &#39;Z752Y&#39;&lt;/div&gt;&lt;div&gt;&amp;nbsp; and b.`workbench_no` = &#39;workbench-test-01&#39;&lt;/div&gt;&lt;div&gt;&amp;nbsp; and a.`status` = &#39;1&#39;;&lt;/div&gt;" style="text;html=1;align=left;verticalAlign=middle;resizable=0;points=[];autosize=1;strokeColor=none;fillColor=none;" vertex="1" parent="Yv0LOf2NeITes6On473w-46">
          <mxGeometry x="14.25" y="70" width="380" height="160" as="geometry" />
        </mxCell>
        <mxCell id="Yv0LOf2NeITes6On473w-49" value="组装数据后写入格口预占表，并修改对应格口的状态为 2-已占用" style="whiteSpace=wrap;html=1;" vertex="1" parent="FaZC592zvoWZjne6oMdN-4">
          <mxGeometry x="322.75" y="1320" width="129" height="60" as="geometry" />
        </mxCell>
        <mxCell id="Yv0LOf2NeITes6On473w-54" style="edgeStyle=orthogonalEdgeStyle;rounded=0;orthogonalLoop=1;jettySize=auto;html=1;exitX=1;exitY=0.5;exitDx=0;exitDy=0;entryX=0;entryY=0.5;entryDx=0;entryDy=0;" edge="1" parent="FaZC592zvoWZjne6oMdN-4" source="Yv0LOf2NeITes6On473w-51" target="Yv0LOf2NeITes6On473w-53">
          <mxGeometry relative="1" as="geometry" />
        </mxCell>
        <mxCell id="Yv0LOf2NeITes6On473w-55" style="edgeStyle=orthogonalEdgeStyle;rounded=0;orthogonalLoop=1;jettySize=auto;html=1;exitX=0.5;exitY=1;exitDx=0;exitDy=0;entryX=0.5;entryY=0;entryDx=0;entryDy=0;" edge="1" parent="FaZC592zvoWZjne6oMdN-4" source="Yv0LOf2NeITes6On473w-51" target="Yv0LOf2NeITes6On473w-49">
          <mxGeometry relative="1" as="geometry" />
        </mxCell>
        <mxCell id="Yv0LOf2NeITes6On473w-51" value="未占用的格口数量&lt;div&gt;是否大于待分播流道数&lt;/div&gt;" style="rhombus;whiteSpace=wrap;html=1;" vertex="1" parent="FaZC592zvoWZjne6oMdN-4">
          <mxGeometry x="300.5" y="1160" width="173" height="70" as="geometry" />
        </mxCell>
        <mxCell id="Yv0LOf2NeITes6On473w-53" value="&lt;div style=&quot;&quot;&gt;&lt;pre style=&quot;&quot;&gt;&lt;font face=&quot;宋体, monospace&quot;&gt;&lt;span style=&quot;font-size: 14px;&quot;&gt;当前工作台可用格口不足&lt;/span&gt;&lt;/font&gt;&lt;/pre&gt;&lt;/div&gt;" style="ellipse;whiteSpace=wrap;html=1;" vertex="1" parent="FaZC592zvoWZjne6oMdN-4">
          <mxGeometry x="580" y="1166" width="160" height="58" as="geometry" />
        </mxCell>
        <mxCell id="Yv0LOf2NeITes6On473w-65" value="" style="edgeStyle=orthogonalEdgeStyle;rounded=0;orthogonalLoop=1;jettySize=auto;html=1;" edge="1" parent="FaZC592zvoWZjne6oMdN-4" source="Yv0LOf2NeITes6On473w-62" target="Yv0LOf2NeITes6On473w-64">
          <mxGeometry relative="1" as="geometry" />
        </mxCell>
        <mxCell id="Yv0LOf2NeITes6On473w-62" value="&lt;div style=&quot;&quot;&gt;&lt;pre style=&quot;&quot;&gt;&lt;span style=&quot;background-color: rgb(255, 255, 255);&quot;&gt;&lt;font face=&quot;Helvetica&quot; style=&quot;font-size: 12px;&quot;&gt;/rfapi/blOmOnlineRecheck/&lt;/font&gt;&lt;/span&gt;&lt;font face=&quot;Helvetica&quot;&gt;scanBarcode&lt;/font&gt;&lt;/pre&gt;&lt;/div&gt;" style="text;html=1;align=center;verticalAlign=middle;whiteSpace=wrap;rounded=0;strokeColor=default;" vertex="1" parent="FaZC592zvoWZjne6oMdN-4">
          <mxGeometry x="130" y="1610" width="290" height="40" as="geometry" />
        </mxCell>
        <mxCell id="Yv0LOf2NeITes6On473w-64" value="&lt;div style=&quot;&quot;&gt;&lt;pre style=&quot;&quot;&gt;&lt;font face=&quot;Helvetica&quot;&gt;&lt;span style=&quot;background-color: rgb(255, 255, 255);&quot;&gt;查询商品信息&lt;/span&gt;&lt;/font&gt;&lt;/pre&gt;&lt;/div&gt;" style="text;html=1;align=center;verticalAlign=middle;whiteSpace=wrap;rounded=0;strokeColor=default;" vertex="1" parent="FaZC592zvoWZjne6oMdN-4">
          <mxGeometry x="130" y="1730" width="290" height="40" as="geometry" />
        </mxCell>
        <mxCell id="Yv0LOf2NeITes6On473w-68" value="当前商品是否&lt;div&gt;属于当前波次&lt;/div&gt;" style="rhombus;whiteSpace=wrap;html=1;" vertex="1" parent="FaZC592zvoWZjne6oMdN-4">
          <mxGeometry x="217.25" y="1881" width="115" height="56" as="geometry" />
        </mxCell>
        <mxCell id="Yv0LOf2NeITes6On473w-97" style="edgeStyle=orthogonalEdgeStyle;rounded=0;orthogonalLoop=1;jettySize=auto;html=1;exitX=0.5;exitY=1;exitDx=0;exitDy=0;entryX=0.5;entryY=0;entryDx=0;entryDy=0;" edge="1" parent="FaZC592zvoWZjne6oMdN-4" source="Yv0LOf2NeITes6On473w-64" target="Yv0LOf2NeITes6On473w-68">
          <mxGeometry relative="1" as="geometry" />
        </mxCell>
        <mxCell id="Yv0LOf2NeITes6On473w-69" value="&lt;div style=&quot;&quot;&gt;&lt;pre style=&quot;font-family: 宋体, monospace; font-size: 10.5pt;&quot;&gt;&lt;span style=&quot;background-color: rgb(255, 255, 255);&quot;&gt;拣货单不存在该商品&lt;/span&gt;&lt;/pre&gt;&lt;/div&gt;" style="ellipse;whiteSpace=wrap;html=1;" vertex="1" parent="FaZC592zvoWZjne6oMdN-4">
          <mxGeometry x="412.25" y="1880" width="122.5" height="58" as="geometry" />
        </mxCell>
        <mxCell id="Yv0LOf2NeITes6On473w-66" value="" style="edgeStyle=orthogonalEdgeStyle;rounded=0;orthogonalLoop=1;jettySize=auto;html=1;" edge="1" parent="FaZC592zvoWZjne6oMdN-4" source="Yv0LOf2NeITes6On473w-68" target="Yv0LOf2NeITes6On473w-69">
          <mxGeometry relative="1" as="geometry" />
        </mxCell>
        <mxCell id="Yv0LOf2NeITes6On473w-67" value="" style="edgeStyle=orthogonalEdgeStyle;rounded=0;orthogonalLoop=1;jettySize=auto;html=1;entryX=0.5;entryY=0;entryDx=0;entryDy=0;" edge="1" parent="FaZC592zvoWZjne6oMdN-4" source="Yv0LOf2NeITes6On473w-68" target="Yv0LOf2NeITes6On473w-84">
          <mxGeometry relative="1" as="geometry">
            <mxPoint x="274.75" y="2017" as="targetPoint" />
          </mxGeometry>
        </mxCell>
        <mxCell id="Yv0LOf2NeITes6On473w-120" value="" style="edgeStyle=orthogonalEdgeStyle;rounded=0;orthogonalLoop=1;jettySize=auto;html=1;" edge="1" parent="FaZC592zvoWZjne6oMdN-4" source="Yv0LOf2NeITes6On473w-84" target="Yv0LOf2NeITes6On473w-119">
          <mxGeometry relative="1" as="geometry" />
        </mxCell>
        <mxCell id="Yv0LOf2NeITes6On473w-84" value="代分播数量是否&amp;gt;0" style="rhombus;whiteSpace=wrap;html=1;" vertex="1" parent="FaZC592zvoWZjne6oMdN-4">
          <mxGeometry x="217" y="2026" width="115" height="56" as="geometry" />
        </mxCell>
        <mxCell id="Yv0LOf2NeITes6On473w-85" value="&lt;div style=&quot;&quot;&gt;&lt;pre style=&quot;&quot;&gt;&lt;font face=&quot;宋体, monospace&quot;&gt;&lt;span style=&quot;font-size: 14px;&quot;&gt;该商品无待代分播数量!&lt;/span&gt;&lt;span style=&quot;font-size: 10.5pt;&quot;&gt;&lt;br&gt;&lt;/span&gt;&lt;/font&gt;&lt;/pre&gt;&lt;/div&gt;" style="ellipse;whiteSpace=wrap;html=1;" vertex="1" parent="FaZC592zvoWZjne6oMdN-4">
          <mxGeometry x="421" y="2025" width="160" height="58" as="geometry" />
        </mxCell>
        <mxCell id="Yv0LOf2NeITes6On473w-82" style="edgeStyle=orthogonalEdgeStyle;rounded=0;orthogonalLoop=1;jettySize=auto;html=1;exitX=1;exitY=0.5;exitDx=0;exitDy=0;entryX=0;entryY=0.5;entryDx=0;entryDy=0;" edge="1" parent="FaZC592zvoWZjne6oMdN-4" source="Yv0LOf2NeITes6On473w-84" target="Yv0LOf2NeITes6On473w-85">
          <mxGeometry relative="1" as="geometry" />
        </mxCell>
        <mxCell id="Yv0LOf2NeITes6On473w-129" style="edgeStyle=orthogonalEdgeStyle;rounded=0;orthogonalLoop=1;jettySize=auto;html=1;exitX=0.5;exitY=1;exitDx=0;exitDy=0;" edge="1" parent="FaZC592zvoWZjne6oMdN-4" source="Yv0LOf2NeITes6On473w-107" target="Yv0LOf2NeITes6On473w-127">
          <mxGeometry relative="1" as="geometry" />
        </mxCell>
        <mxCell id="Yv0LOf2NeITes6On473w-107" value="回写理货数量" style="whiteSpace=wrap;html=1;" vertex="1" parent="FaZC592zvoWZjne6oMdN-4">
          <mxGeometry x="217.5" y="2900" width="129" height="60" as="geometry" />
        </mxCell>
        <mxCell id="Yv0LOf2NeITes6On473w-113" value="" style="edgeStyle=orthogonalEdgeStyle;rounded=0;orthogonalLoop=1;jettySize=auto;html=1;" edge="1" parent="FaZC592zvoWZjne6oMdN-4" source="Yv0LOf2NeITes6On473w-110" target="Yv0LOf2NeITes6On473w-112">
          <mxGeometry relative="1" as="geometry" />
        </mxCell>
        <mxCell id="Yv0LOf2NeITes6On473w-115" style="edgeStyle=orthogonalEdgeStyle;rounded=0;orthogonalLoop=1;jettySize=auto;html=1;exitX=1;exitY=0.5;exitDx=0;exitDy=0;entryX=0.5;entryY=0;entryDx=0;entryDy=0;" edge="1" parent="FaZC592zvoWZjne6oMdN-4" source="Yv0LOf2NeITes6On473w-110" target="Yv0LOf2NeITes6On473w-114">
          <mxGeometry relative="1" as="geometry" />
        </mxCell>
        <mxCell id="Yv0LOf2NeITes6On473w-110" value="是否超时" style="rhombus;whiteSpace=wrap;html=1;" vertex="1" parent="FaZC592zvoWZjne6oMdN-4">
          <mxGeometry x="222" y="2500" width="104.5" height="60" as="geometry" />
        </mxCell>
        <mxCell id="Yv0LOf2NeITes6On473w-128" style="edgeStyle=orthogonalEdgeStyle;rounded=0;orthogonalLoop=1;jettySize=auto;html=1;exitX=0.5;exitY=1;exitDx=0;exitDy=0;entryX=0.5;entryY=0;entryDx=0;entryDy=0;" edge="1" parent="FaZC592zvoWZjne6oMdN-4" source="Yv0LOf2NeITes6On473w-112" target="Yv0LOf2NeITes6On473w-107">
          <mxGeometry relative="1" as="geometry" />
        </mxCell>
        <mxCell id="Yv0LOf2NeITes6On473w-112" value="发送绿色常亮指令到电子标签" style="whiteSpace=wrap;html=1;" vertex="1" parent="FaZC592zvoWZjne6oMdN-4">
          <mxGeometry x="57" y="2580" width="120" height="60" as="geometry" />
        </mxCell>
        <mxCell id="Yv0LOf2NeITes6On473w-130" style="edgeStyle=orthogonalEdgeStyle;rounded=0;orthogonalLoop=1;jettySize=auto;html=1;exitX=0.5;exitY=1;exitDx=0;exitDy=0;entryX=0.5;entryY=0;entryDx=0;entryDy=0;" edge="1" parent="FaZC592zvoWZjne6oMdN-4" source="Yv0LOf2NeITes6On473w-114" target="Yv0LOf2NeITes6On473w-107">
          <mxGeometry relative="1" as="geometry">
            <Array as="points">
              <mxPoint x="429" y="2770" />
              <mxPoint x="282" y="2770" />
            </Array>
          </mxGeometry>
        </mxCell>
        <mxCell id="Yv0LOf2NeITes6On473w-114" value="发送黄色常亮指令到电子标签" style="whiteSpace=wrap;html=1;" vertex="1" parent="FaZC592zvoWZjne6oMdN-4">
          <mxGeometry x="369" y="2650" width="120" height="60" as="geometry" />
        </mxCell>
        <mxCell id="Yv0LOf2NeITes6On473w-122" style="edgeStyle=orthogonalEdgeStyle;rounded=0;orthogonalLoop=1;jettySize=auto;html=1;exitX=0.5;exitY=1;exitDx=0;exitDy=0;entryX=0.5;entryY=0;entryDx=0;entryDy=0;" edge="1" parent="FaZC592zvoWZjne6oMdN-4" source="Yv0LOf2NeITes6On473w-119" target="Yv0LOf2NeITes6On473w-121">
          <mxGeometry relative="1" as="geometry" />
        </mxCell>
        <mxCell id="Yv0LOf2NeITes6On473w-119" value="理货数量+1" style="whiteSpace=wrap;html=1;" vertex="1" parent="FaZC592zvoWZjne6oMdN-4">
          <mxGeometry x="214.5" y="2160" width="120" height="60" as="geometry" />
        </mxCell>
        <mxCell id="Yv0LOf2NeITes6On473w-123" style="edgeStyle=orthogonalEdgeStyle;rounded=0;orthogonalLoop=1;jettySize=auto;html=1;exitX=0.5;exitY=1;exitDx=0;exitDy=0;" edge="1" parent="FaZC592zvoWZjne6oMdN-4" source="Yv0LOf2NeITes6On473w-121" target="Yv0LOf2NeITes6On473w-110">
          <mxGeometry relative="1" as="geometry" />
        </mxCell>
        <mxCell id="Yv0LOf2NeITes6On473w-125" value="" style="edgeStyle=orthogonalEdgeStyle;rounded=0;orthogonalLoop=1;jettySize=auto;html=1;entryX=0;entryY=0.5;entryDx=0;entryDy=0;" edge="1" parent="FaZC592zvoWZjne6oMdN-4" source="Yv0LOf2NeITes6On473w-121" target="Yv0LOf2NeITes6On473w-126">
          <mxGeometry relative="1" as="geometry">
            <mxPoint x="410" y="2300" as="targetPoint" />
          </mxGeometry>
        </mxCell>
        <mxCell id="Yv0LOf2NeITes6On473w-121" value="代分播数量是否=0" style="rhombus;whiteSpace=wrap;html=1;" vertex="1" parent="FaZC592zvoWZjne6oMdN-4">
          <mxGeometry x="217.5" y="2270" width="115" height="60" as="geometry" />
        </mxCell>
        <mxCell id="Yv0LOf2NeITes6On473w-133" style="edgeStyle=orthogonalEdgeStyle;rounded=0;orthogonalLoop=1;jettySize=auto;html=1;exitX=0.5;exitY=1;exitDx=0;exitDy=0;entryX=1;entryY=0.5;entryDx=0;entryDy=0;" edge="1" parent="FaZC592zvoWZjne6oMdN-4" source="Yv0LOf2NeITes6On473w-126" target="Yv0LOf2NeITes6On473w-107">
          <mxGeometry relative="1" as="geometry" />
        </mxCell>
        <mxCell id="Yv0LOf2NeITes6On473w-126" value="发送蓝色常亮指令到电子标签" style="whiteSpace=wrap;html=1;" vertex="1" parent="FaZC592zvoWZjne6oMdN-4">
          <mxGeometry x="473.5" y="2270" width="120" height="60" as="geometry" />
        </mxCell>
        <mxCell id="Yv0LOf2NeITes6On473w-127" value="查询统计数量" style="whiteSpace=wrap;html=1;" vertex="1" parent="FaZC592zvoWZjne6oMdN-4">
          <mxGeometry x="217.5" y="3060" width="129" height="60" as="geometry" />
        </mxCell>
        <mxCell id="Yv0LOf2NeITes6On473w-159" style="edgeStyle=orthogonalEdgeStyle;rounded=0;orthogonalLoop=1;jettySize=auto;html=1;exitX=1;exitY=0.5;exitDx=0;exitDy=0;entryX=0;entryY=0.5;entryDx=0;entryDy=0;" edge="1" parent="FaZC592zvoWZjne6oMdN-4" source="Yv0LOf2NeITes6On473w-140" target="Yv0LOf2NeITes6On473w-158">
          <mxGeometry relative="1" as="geometry" />
        </mxCell>
        <mxCell id="Yv0LOf2NeITes6On473w-140" value="清除格口预占" style="whiteSpace=wrap;html=1;" vertex="1" parent="FaZC592zvoWZjne6oMdN-4">
          <mxGeometry x="154" y="3759" width="120" height="60" as="geometry" />
        </mxCell>
        <mxCell id="Yv0LOf2NeITes6On473w-147" value="" style="edgeStyle=orthogonalEdgeStyle;rounded=0;orthogonalLoop=1;jettySize=auto;html=1;" edge="1" parent="FaZC592zvoWZjne6oMdN-4" source="Yv0LOf2NeITes6On473w-144" target="Yv0LOf2NeITes6On473w-146">
          <mxGeometry relative="1" as="geometry" />
        </mxCell>
        <mxCell id="Yv0LOf2NeITes6On473w-144" value="查询该分播墙所有已分播完成的格口" style="whiteSpace=wrap;html=1;" vertex="1" parent="FaZC592zvoWZjne6oMdN-4">
          <mxGeometry x="167" y="3330" width="120" height="60" as="geometry" />
        </mxCell>
        <mxCell id="Yv0LOf2NeITes6On473w-146" value="推荐复合工作台" style="whiteSpace=wrap;html=1;" vertex="1" parent="FaZC592zvoWZjne6oMdN-4">
          <mxGeometry x="167" y="3440" width="120" height="60" as="geometry" />
        </mxCell>
        <mxCell id="Yv0LOf2NeITes6On473w-156" value="" style="edgeStyle=orthogonalEdgeStyle;rounded=0;orthogonalLoop=1;jettySize=auto;html=1;" edge="1" parent="FaZC592zvoWZjne6oMdN-4" source="Yv0LOf2NeITes6On473w-153" target="Yv0LOf2NeITes6On473w-155">
          <mxGeometry relative="1" as="geometry" />
        </mxCell>
        <mxCell id="Yv0LOf2NeITes6On473w-157" style="edgeStyle=orthogonalEdgeStyle;rounded=0;orthogonalLoop=1;jettySize=auto;html=1;exitX=0.5;exitY=1;exitDx=0;exitDy=0;entryX=0.5;entryY=0;entryDx=0;entryDy=0;" edge="1" parent="FaZC592zvoWZjne6oMdN-4" source="Yv0LOf2NeITes6On473w-153" target="Yv0LOf2NeITes6On473w-140">
          <mxGeometry relative="1" as="geometry" />
        </mxCell>
        <mxCell id="Yv0LOf2NeITes6On473w-153" value="是否已分播完成" style="rhombus;whiteSpace=wrap;html=1;" vertex="1" parent="FaZC592zvoWZjne6oMdN-4">
          <mxGeometry x="160" y="3580" width="107" height="80" as="geometry" />
        </mxCell>
        <mxCell id="Yv0LOf2NeITes6On473w-155" value="当前格口还未分播完成" style="ellipse;whiteSpace=wrap;html=1;" vertex="1" parent="FaZC592zvoWZjne6oMdN-4">
          <mxGeometry x="347" y="3580" width="133" height="80" as="geometry" />
        </mxCell>
        <mxCell id="Yv0LOf2NeITes6On473w-158" value="发送熄灯指令到电子标签" style="whiteSpace=wrap;html=1;" vertex="1" parent="FaZC592zvoWZjne6oMdN-4">
          <mxGeometry x="369" y="3759" width="120" height="60" as="geometry" />
        </mxCell>
        <mxCell id="FaZC592zvoWZjne6oMdN-19" style="edgeStyle=orthogonalEdgeStyle;rounded=0;orthogonalLoop=1;jettySize=auto;html=1;exitX=1;exitY=0.5;exitDx=0;exitDy=0;entryX=0;entryY=0.5;entryDx=0;entryDy=0;" parent="tjXnVJBQ9HKJjdVD9FGJ-2" source="FaZC592zvoWZjne6oMdN-2" target="FaZC592zvoWZjne6oMdN-14" edge="1">
          <mxGeometry relative="1" as="geometry" />
        </mxCell>
        <mxCell id="Yv0LOf2NeITes6On473w-63" style="edgeStyle=orthogonalEdgeStyle;rounded=0;orthogonalLoop=1;jettySize=auto;html=1;exitX=1;exitY=0.5;exitDx=0;exitDy=0;entryX=0;entryY=0.5;entryDx=0;entryDy=0;" edge="1" parent="tjXnVJBQ9HKJjdVD9FGJ-2" source="Yv0LOf2NeITes6On473w-60" target="Yv0LOf2NeITes6On473w-62">
          <mxGeometry relative="1" as="geometry" />
        </mxCell>
        <mxCell id="Yv0LOf2NeITes6On473w-116" value="WCS" style="swimlane;whiteSpace=wrap;html=1;" vertex="1" parent="tjXnVJBQ9HKJjdVD9FGJ-2">
          <mxGeometry x="1240" y="20" width="400" height="3980" as="geometry" />
        </mxCell>
        <mxCell id="Yv0LOf2NeITes6On473w-131" value="蓝色常亮" style="whiteSpace=wrap;html=1;" vertex="1" parent="Yv0LOf2NeITes6On473w-116">
          <mxGeometry x="97" y="2270" width="120" height="60" as="geometry" />
        </mxCell>
        <mxCell id="Yv0LOf2NeITes6On473w-134" value="绿色常亮" style="whiteSpace=wrap;html=1;" vertex="1" parent="Yv0LOf2NeITes6On473w-116">
          <mxGeometry x="97" y="2580" width="120" height="60" as="geometry" />
        </mxCell>
        <mxCell id="Yv0LOf2NeITes6On473w-136" value="黄色常亮" style="whiteSpace=wrap;html=1;" vertex="1" parent="Yv0LOf2NeITes6On473w-116">
          <mxGeometry x="97" y="2650" width="120" height="60" as="geometry" />
        </mxCell>
        <mxCell id="Yv0LOf2NeITes6On473w-160" value="熄灯" style="whiteSpace=wrap;html=1;" vertex="1" parent="Yv0LOf2NeITes6On473w-116">
          <mxGeometry x="127" y="3759" width="120" height="60" as="geometry" />
        </mxCell>
        <mxCell id="Yv0LOf2NeITes6On473w-132" style="edgeStyle=orthogonalEdgeStyle;rounded=0;orthogonalLoop=1;jettySize=auto;html=1;exitX=1;exitY=0.5;exitDx=0;exitDy=0;entryX=0;entryY=0.5;entryDx=0;entryDy=0;" edge="1" parent="tjXnVJBQ9HKJjdVD9FGJ-2" source="Yv0LOf2NeITes6On473w-126" target="Yv0LOf2NeITes6On473w-131">
          <mxGeometry relative="1" as="geometry" />
        </mxCell>
        <mxCell id="Yv0LOf2NeITes6On473w-135" style="edgeStyle=orthogonalEdgeStyle;rounded=0;orthogonalLoop=1;jettySize=auto;html=1;exitX=1;exitY=0.5;exitDx=0;exitDy=0;entryX=0;entryY=0.5;entryDx=0;entryDy=0;" edge="1" parent="tjXnVJBQ9HKJjdVD9FGJ-2" source="Yv0LOf2NeITes6On473w-112" target="Yv0LOf2NeITes6On473w-134">
          <mxGeometry relative="1" as="geometry" />
        </mxCell>
        <mxCell id="Yv0LOf2NeITes6On473w-137" style="edgeStyle=orthogonalEdgeStyle;rounded=0;orthogonalLoop=1;jettySize=auto;html=1;exitX=1;exitY=0.5;exitDx=0;exitDy=0;entryX=0;entryY=0.5;entryDx=0;entryDy=0;" edge="1" parent="tjXnVJBQ9HKJjdVD9FGJ-2" source="Yv0LOf2NeITes6On473w-114" target="Yv0LOf2NeITes6On473w-136">
          <mxGeometry relative="1" as="geometry" />
        </mxCell>
        <mxCell id="Yv0LOf2NeITes6On473w-141" value="" style="edgeStyle=orthogonalEdgeStyle;rounded=0;orthogonalLoop=1;jettySize=auto;html=1;entryX=0.5;entryY=0;entryDx=0;entryDy=0;" edge="1" parent="tjXnVJBQ9HKJjdVD9FGJ-2" source="Yv0LOf2NeITes6On473w-138" target="Yv0LOf2NeITes6On473w-144">
          <mxGeometry relative="1" as="geometry">
            <mxPoint x="517" y="3290" as="targetPoint" />
          </mxGeometry>
        </mxCell>
        <mxCell id="Yv0LOf2NeITes6On473w-138" value="复核人员扫描分播墙" style="whiteSpace=wrap;html=1;" vertex="1" parent="tjXnVJBQ9HKJjdVD9FGJ-2">
          <mxGeometry x="47" y="3280" width="120" height="60" as="geometry" />
        </mxCell>
        <mxCell id="Yv0LOf2NeITes6On473w-148" value="PDA 展示复合查询结果" style="whiteSpace=wrap;html=1;" vertex="1" parent="tjXnVJBQ9HKJjdVD9FGJ-2">
          <mxGeometry x="47" y="3460" width="120" height="60" as="geometry" />
        </mxCell>
        <mxCell id="Yv0LOf2NeITes6On473w-149" value="" style="edgeStyle=orthogonalEdgeStyle;rounded=0;orthogonalLoop=1;jettySize=auto;html=1;" edge="1" parent="tjXnVJBQ9HKJjdVD9FGJ-2" source="Yv0LOf2NeITes6On473w-146" target="Yv0LOf2NeITes6On473w-148">
          <mxGeometry relative="1" as="geometry" />
        </mxCell>
        <mxCell id="Yv0LOf2NeITes6On473w-154" value="" style="edgeStyle=orthogonalEdgeStyle;rounded=0;orthogonalLoop=1;jettySize=auto;html=1;" edge="1" parent="tjXnVJBQ9HKJjdVD9FGJ-2" source="Yv0LOf2NeITes6On473w-150" target="Yv0LOf2NeITes6On473w-153">
          <mxGeometry relative="1" as="geometry" />
        </mxCell>
        <mxCell id="Yv0LOf2NeITes6On473w-150" value="复核人员扫描格口" style="whiteSpace=wrap;html=1;" vertex="1" parent="tjXnVJBQ9HKJjdVD9FGJ-2">
          <mxGeometry x="47" y="3610" width="120" height="60" as="geometry" />
        </mxCell>
        <mxCell id="Yv0LOf2NeITes6On473w-161" value="" style="edgeStyle=orthogonalEdgeStyle;rounded=0;orthogonalLoop=1;jettySize=auto;html=1;" edge="1" parent="tjXnVJBQ9HKJjdVD9FGJ-2" source="Yv0LOf2NeITes6On473w-158" target="Yv0LOf2NeITes6On473w-160">
          <mxGeometry relative="1" as="geometry" />
        </mxCell>
        <mxCell id="FaZC592zvoWZjne6oMdN-10" value="&lt;ol&gt;&lt;li&gt;是否存在该拣货单&lt;/li&gt;&lt;li&gt;是否是一单多货&lt;/li&gt;&lt;li&gt;是否已拣货完成&lt;/li&gt;&lt;li&gt;是否已跳过理货&lt;/li&gt;&lt;li&gt;是否已理货完成&lt;/li&gt;&lt;/ol&gt;" style="text;strokeColor=none;fillColor=none;html=1;whiteSpace=wrap;verticalAlign=middle;overflow=hidden;" parent="1" vertex="1">
          <mxGeometry x="1674" y="1334" width="160" height="100" as="geometry" />
        </mxCell>
        <mxCell id="FaZC592zvoWZjne6oMdN-8" value="" style="shape=curlyBracket;whiteSpace=wrap;html=1;rounded=1;labelPosition=left;verticalLabelPosition=middle;align=right;verticalAlign=middle;" parent="1" vertex="1">
          <mxGeometry x="1674" y="1344" width="20" height="90" as="geometry" />
        </mxCell>
        <mxCell id="FaZC592zvoWZjne6oMdN-11" value="预占格口" style="rounded=0;whiteSpace=wrap;html=1;fillColor=#d5e8d4;strokeColor=#82b366;" parent="1" vertex="1">
          <mxGeometry x="1654" y="1554" width="120" height="60" as="geometry" />
        </mxCell>
        <mxCell id="FaZC592zvoWZjne6oMdN-12" value="" style="shape=curlyBracket;whiteSpace=wrap;html=1;rounded=1;labelPosition=left;verticalLabelPosition=middle;align=right;verticalAlign=middle;" parent="1" vertex="1">
          <mxGeometry x="1774" y="1678.5" width="20" height="71" as="geometry" />
        </mxCell>
        <mxCell id="FaZC592zvoWZjne6oMdN-13" value="&lt;ol&gt;&lt;li&gt;Value 1&lt;/li&gt;&lt;li&gt;Value 2&lt;/li&gt;&lt;li&gt;Value 3&lt;/li&gt;&lt;/ol&gt;" style="text;strokeColor=none;fillColor=none;html=1;whiteSpace=wrap;verticalAlign=middle;overflow=hidden;" parent="1" vertex="1">
          <mxGeometry x="1799" y="1674" width="100" height="80" as="geometry" />
        </mxCell>
        <mxCell id="Yv0LOf2NeITes6On473w-59" value="" style="edgeStyle=orthogonalEdgeStyle;rounded=0;orthogonalLoop=1;jettySize=auto;html=1;" edge="1" parent="1" source="Yv0LOf2NeITes6On473w-56" target="Yv0LOf2NeITes6On473w-58">
          <mxGeometry relative="1" as="geometry" />
        </mxCell>
        <mxCell id="Yv0LOf2NeITes6On473w-56" value="查询统计数量" style="whiteSpace=wrap;html=1;" vertex="1" parent="1">
          <mxGeometry x="192.75" y="2900" width="129" height="60" as="geometry" />
        </mxCell>
        <mxCell id="Yv0LOf2NeITes6On473w-57" value="" style="edgeStyle=orthogonalEdgeStyle;rounded=0;orthogonalLoop=1;jettySize=auto;html=1;" edge="1" parent="1" source="Yv0LOf2NeITes6On473w-49" target="Yv0LOf2NeITes6On473w-56">
          <mxGeometry relative="1" as="geometry" />
        </mxCell>
      </root>
    </mxGraphModel>
  </diagram>
</mxfile>
